<?xml version="1.0" standalone="no"?><!DOCTYPE svg PUBLIC "-//W3C//DTD SVG 1.1//EN" "http://www.w3.org/Graphics/SVG/1.1/DTD/svg11.dtd"><svg t="1667894932406" class="icon" viewBox="0 0 1024 1024" version="1.1" xmlns="http://www.w3.org/2000/svg" p-id="3427" xmlns:xlink="http://www.w3.org/1999/xlink" width="200" height="200"><path d="M512 1023.999078A512.132659 512.132659 0 0 1 312.709299 40.232924a512.132659 512.132659 0 0 1 398.581402 943.533231A508.784182 508.784182 0 0 1 512 1023.999078z m-40.693723-705.258885a40.959963 40.959963 0 0 0-38.471646 55.019471l112.076699 307.916522a41.062363 41.062363 0 0 0 38.471646 26.931176h0.563199a41.103323 41.103323 0 0 0 38.502366-26.951655L734.52524 373.759664a40.959963 40.959963 0 1 0-76.984251-28.026855L583.679935 548.638226 509.808642 345.702089a41.103323 41.103323 0 0 0-38.502365-26.961896z m-143.359871 0a40.959963 40.959963 0 0 0-38.481886 54.988751l112.076699 307.916523a40.959963 40.959963 0 0 0 52.490193 24.473577 40.959963 40.959963 0 0 0 24.483818-52.490192L366.448771 345.691849a41.103323 41.103323 0 0 0-38.492125-26.961896z" p-id="3428"></path></svg>