<?xml version="1.0" standalone="no"?><!DOCTYPE svg PUBLIC "-//W3C//DTD SVG 1.1//EN" "http://www.w3.org/Graphics/SVG/1.1/DTD/svg11.dtd"><svg t="1688450598718" class="icon" viewBox="0 0 1024 1024" version="1.1" xmlns="http://www.w3.org/2000/svg" p-id="2508" xmlns:xlink="http://www.w3.org/1999/xlink" width="200" height="200"><path d="M492.416 23.552c-3.050667 0.213333-6.037333 0.661333-8.96 1.365333-23.36 5.632-44.650667 27.818667-45.781333 55.786667 0.213333-5.397333-0.021333-0.512-3.413334 5.056-3.413333 5.546667-8.853333 12.8-14.890666 19.626667-4.522667 5.098667-9.130667 9.28-13.589334 13.312-28.672-27.178667-57.386667-53.162667-83.157333-71.957334v0.042667c-25.664-18.752-59.861333-15.509333-81.28 1.173333-21.44 16.682667-33.024 48.853333-21.376 78.378667a32 32 0 0 0 0.042667 0.042667c7.68 19.498667 13.077333 48.32 18.986666 75.669333-6.229333-1.664-10.88-2.56-17.749333-4.586667-32-9.578667-67.882667-22.250667-87.530667-28.928-30.08-10.176-61.568 3.456-76.885333 25.685334-15.317333 22.208-16.96 56.213333 2.965333 80.853333 26.069333 32.277333 49.429333 65.216 69.290667 93.674667-30.08 13.162667-60.928 26.858667-84.757333 44.629333-19.498667 14.528-27.392 43.776-18.837334 64.384 8.576 20.586667 27.349333 33.706667 49.258667 37.610667a336.426667 336.426667 0 0 1 64.789333 19.413333c7.957333 3.413333 14.677333 6.997333 20.373334 10.453333-14.976 25.322667-16.426667 54.357333-10.325334 80.341334 6.186667 26.24 20.053333 50.837333 42.837334 67.413333 11.882667 8.661333 26.944 13.76 42.901333 15.168-2.752 127.68 68.714667 237.589333 68.714667 237.589333a32 32 0 1 0 53.248-35.498666s-77.525333-122.069333-59.050667-233.002667a32 32 0 0 0-44.821333-34.368c-11.882667 5.397333-16.085333 3.648-23.338667-1.621333-7.253333-5.290667-15.146667-17.28-18.197333-30.336-3.072-13.077333-1.344-25.813333 3.2-33.344 4.544-7.509333 10.709333-13.44 31.338666-14.528A32 32 0 0 0 277.76 533.333333h87.978667a32 32 0 0 0 15.530666 0H469.333333v42.666667a21.333333 21.333333 0 0 0 21.333334 21.333333h192a21.333333 21.333333 0 0 0 21.333333-21.333333v-42.666667h64a21.333333 21.333333 0 0 0 10.794667-2.773333 21.333333 21.333333 0 0 0 1.002666 0.533333C812.288 547.328 810.666667 576 810.666667 576a21.333333 21.333333 0 0 0 21.333333 21.333333s13.290667 0.256 25.258667 4.266667c5.973333 1.984 11.008 4.842667 13.653333 7.466667 2.645333 2.666667 3.754667 4.266667 3.754667 9.6 0 8.896-1.28 14.016-2.176 16-0.853333 1.984-0.512 1.493333-2.026667 2.24C867.413333 638.442667 853.333333 640 832 640a21.333333 21.333333 0 0 0-15.082667 6.250667c-8.149333 8.149333-20.778667 16.170667-33.258666 17.962666-12.458667 1.770667-25.685333-0.405333-43.242667-17.962666A21.333333 21.333333 0 0 0 725.333333 640h-64a21.333333 21.333333 0 1 0 0 42.666667h58.581334c22.869333 18.56 47.914667 26.922667 69.76 23.786666 21.418667-3.050667 37.888-13.653333 50.709333-24.874666 12.266667 0.128 23.829333 0.576 35.072-1.792a32 32 0 0 0 6.613333 12.714666s21.632 29.290667 24.96 51.050667c1.685333 10.88 0.938667 16.469333-5.738666 23.616-6.677333 7.146667-24.234667 17.621333-62.592 22.4-33.92 4.266667-50.24 4.096-70.613334 0.149333-20.373333-3.968-46.506667-12.949333-92.629333-27.221333-63.957333-19.776-113.28-17.664-154.325333-4.778667a21.333333 21.333333 0 0 0-21.290667-21.76 21.333333 21.333333 0 0 0-20.906667 17.045334l-7.637333 34.709333a32 32 0 0 0-2.624 11.861333l-9.514667 43.264a21.333333 21.333333 0 1 0 41.685334 9.173334l4.416-20.053334a32 32 0 0 0 10.368-3.328c37.994667-18.986667 69.546667-27.093333 140.906666-5.013333 45.226667 13.994667 71.914667 23.594667 99.306667 28.928 2.624 0.512 5.269333 0.746667 7.893333 1.173333-1.770667 4.181333-3.818667 6.912-7.104 10.581334-6.314667 7.018667-20.8 18.624-43.264 41.066666a32 32 0 1 0 45.269334 45.269334c20.202667-20.224 32.96-29.504 45.610666-43.584 11.690667-13.013333 20.117333-30.378667 25.6-52.266667 5.461333-0.512 10.794667-0.96 16.789334-1.706667 46.976-5.866667 80.085333-19.392 101.397333-42.24 21.333333-22.848 25.92-53.248 22.250667-77.056-7.317333-47.573333-39.04-82.282667-39.04-82.282666a32 32 0 0 0-16.213334-10.624c1.6-6.890667 2.304-14.208 2.304-22.208 0-7.616-1.642667-14.826667-4.288-21.333334H960a21.333333 21.333333 0 0 0 21.333333-21.333333v-106.666667a21.333333 21.333333 0 0 0-21.333333-21.333333h-31.829333a32 32 0 0 0-23.082667-30.741333c-0.298667-0.192-2.261333-1.237333-6.549333-6.058667-8.896-9.962667-25.749333-37.333333-44.949334-87.317333 21.802667-11.392 38.698667-27.349333 49.194667-46.762667 20.416-37.738667 24.32-80.042667 33.642667-123.328 5.248-24.533333 0.064-49.301333-16.725334-67.242667-16.789333-17.941333-49.621333-23.466667-73.536-9.813333-16.64 9.514667-54.826667 26.453333-88.32 39.296-6.72 2.581333-11.541333 4.032-17.770666 6.250667 2.602667-10.410667 4.309333-16.128 6.058666-27.52 4.202667-27.562667-12.010667-53.44-33.792-63.68-21.802667-10.24-52.309333-6.058667-70.613333 14.997333-3.712 4.245333-28.202667 25.216-50.069333 40.746667-7.104 5.056-13.056 8.682667-19.328 12.672-7.573333-15.786667-15.04-32.853333-22.656-46.08-12.224-21.184-35.882667-31.424-57.258667-29.866667z m5.674667 69.696c10.154667 18.24 20.522667 38.165333 30.293333 61.589333a32 32 0 0 0 27.605333 19.626667c13.418667 0.810667 17.173333-2.432 22.421334-4.714667 5.269333-2.261333 10.282667-4.949333 15.637333-8.042666 10.709333-6.186667 22.613333-14.122667 34.709333-22.698667A409.386667 409.386667 0 0 0 680.490667 96c-4.416 19.008-13.056 42.048-14.656 69.504a32 32 0 0 0 23.296 32.704c16.192 4.544 18.197333 0.938667 24.085333-0.298667 5.866667-1.216 12.074667-2.944 19.029333-5.077333 13.930667-4.266667 30.762667-10.261333 48.512-17.066667 33.792-13.013333 68.693333-28.224 92.586667-41.386666 0.533333 1.749333 1.28 2.261333 0.490667 5.994666-10.026667 46.634667-16.021333 85.418667-27.328 106.325334-11.306667 20.906667-21.696 30.634667-67.797334 30.634666-26.773333 0-45.525333-3.498667-89.962666-26.026666a32 32 0 0 0-46.208 32.490666c2.069333 16.597333 1.066667 31.146667 0.213333 45.226667-28.501333-20.181333-58.24-37.290667-88.256-47.402667-47.061333-15.850667-93.12-21.418667-131.328-1.002666-45.290667 24.213333-75.029333 55.744-85.824 95.082666-9.6 34.922667-5.76 71.68 1.749333 114.965334H213.333333a21.333333 21.333333 0 0 0-13.226666 4.373333 204.842667 204.842667 0 0 0-35.434667-19.114667c-22.826667-9.728-45.248-15.146667-65.258667-19.498666C122.453333 443.029333 156.629333 427.306667 192 410.709333a32 32 0 0 0 13.717333-45.632c-20.096-32.853333-60.672-86.314667-96.128-130.197333-2.304-2.837333-1.28-2.56-0.042666-4.330667 1.216-1.792 0.213333-2.538667 3.626666-1.386666 18.624 6.314667 55.466667 19.392 89.749334 29.632 17.130667 5.12 33.536 9.6 48.042666 12.288 7.253333 1.344 13.930667 2.304 21.205334 2.410666 7.253333 0.106667 16.170667 2.261333 29.952-9.408a32 32 0 0 0 10.176-32.874666c-7.530667-27.434667-15.445333-84.330667-32.789334-128.341334h0.042667c-1.493333-3.754667-0.512-3.136 1.109333-4.416s0.981333-2.346667 4.224 0a786.496 786.496 0 0 1 96.064 83.178667 32 32 0 0 0 32.298667 8.085333c13.44-4.181333 20.416-10.282667 28.970667-17.386666 8.533333-7.104 17.024-15.488 25.024-24.533334a205.141333 205.141333 0 0 0 21.632-28.672c4.437333-7.253333 6.890667-16.426667 9.216-25.877333z m208.426666 233.706667c26.112 8.938667 49.984 14.378667 72.192 14.378666 4.565333 0 7.253333-2.410667 11.626667-2.709333a32 32 0 0 0 1.002667 3.157333c20.330667 54.933333 38.656 86.314667 54.912 106.218667H768a21.333333 21.333333 0 0 0-21.333333 21.333333v21.333334h-42.666667v-21.333334a21.333333 21.333333 0 0 0-21.333333-21.333333h-192a21.333333 21.333333 0 0 0-21.333334 21.333333v21.333334h-65.344c-8.213333-45.909333-10.517333-77.781333-4.949333-98.048 5.76-21.013333 17.664-35.925333 54.336-55.530667 10.624-5.696 43.413333-7.36 80.704 5.205333 37.290667 12.565333 78.464 36.864 109.866667 68.864a32 32 0 0 0 53.632-13.653333c4.032-14.165333 7.616-40.362667 8.917333-70.549333zM512 490.666667h64a21.333333 21.333333 0 0 0 0 42.666666 21.333333 21.333333 0 0 0 0.874667-42.666666H661.333333v17.749333a21.333333 21.333333 0 0 0 0 6.954667V554.666667h-149.333333v-39.082667a21.333333 21.333333 0 0 0 0-6.954667V490.666667z m279.338667 0H874.666667a21.333333 21.333333 0 0 0 0 42.666666 21.333333 21.333333 0 0 0 0.874666-42.666666H938.666667v64h-90.453334c-4.053333-18.133333-13.696-43.946667-49.344-61.76a21.333333 21.333333 0 0 0-7.530666-2.24z" p-id="2509" fill="#071c99"></path></svg>